<svg xmlns="http://www.w3.org/2000/svg" width="1100" height="460" viewBox="0 0 1100 460">
<rect width="100%" height="100%" fill="white"/>
<text x="95" y="28" font-family="Arial" font-size="14" fill="#222">cnn_transformer horizon=365</text>
<line x1="95" y1="405" x2="1070" y2="405" stroke="#333"/>
<line x1="95" y1="58" x2="95" y2="405" stroke="#333"/>
<line x1="95" y1="405.00" x2="1070" y2="405.00" stroke="#e6e6e6"/>
<text x="83" y="409.00" text-anchor="end" font-family="Arial" font-size="12" fill="#555">0.0</text>
<line x1="95" y1="315.00" x2="1070" y2="315.00" stroke="#e6e6e6"/>
<text x="83" y="319.00" text-anchor="end" font-family="Arial" font-size="12" fill="#555">726.5</text>
<line x1="95" y1="225.00" x2="1070" y2="225.00" stroke="#e6e6e6"/>
<text x="83" y="229.00" text-anchor="end" font-family="Arial" font-size="12" fill="#555">1452.9</text>
<line x1="95" y1="135.00" x2="1070" y2="135.00" stroke="#e6e6e6"/>
<text x="83" y="139.00" text-anchor="end" font-family="Arial" font-size="12" fill="#555">2179.4</text>
<line x1="95" y1="45.00" x2="1070" y2="45.00" stroke="#e6e6e6"/>
<text x="83" y="49.00" text-anchor="end" font-family="Arial" font-size="12" fill="#555">2905.9</text>
<polyline fill="none" stroke="#111827" stroke-width="2" points="95.00,206.83 97.68,234.03 100.36,174.70 103.03,200.47 105.71,188.80 108.39,187.41 111.08,114.40 113.75,221.69 116.43,192.99 119.11,113.65 121.79,110.36 124.46,189.11 127.14,156.37 129.82,181.71 132.50,150.50 135.17,183.93 137.86,179.98 140.54,140.03 143.22,182.64 145.89,164.65 148.57,232.19 151.25,192.26 153.93,188.86 156.60,131.91 159.28,263.25 161.96,152.90 164.65,171.10 167.32,224.72 170.00,45.00 172.68,141.41 175.36,134.48 178.04,133.01 180.72,145.57 183.40,151.29 186.08,101.34 188.76,130.98 191.44,253.33 194.12,242.85 196.80,146.89 199.48,206.27 202.15,130.00 204.83,184.83 207.51,185.79 210.19,182.35 212.86,115.49 215.54,94.24 218.23,216.86 220.91,246.11 223.58,405.00 226.26,328.38 228.94,132.85 231.62,138.63 234.29,168.80 236.97,171.96 239.65,103.52 242.33,113.65 245.01,140.15 247.69,183.17 250.37,81.84 253.05,123.85 255.72,165.84 258.40,148.86 261.08,62.96 263.76,143.57 266.44,145.71 269.11,52.83 271.80,182.10 274.48,195.16 277.16,137.72 279.83,45.36 282.51,118.05 285.19,144.98 287.87,68.90 290.54,203.60 293.22,85.10 295.90,105.08 298.59,164.10 301.26,235.30 303.94,170.48 306.62,113.67 309.30,196.04 311.97,145.19 314.65,182.28 317.33,150.47 320.01,186.82 322.68,162.98 325.37,159.24 328.05,65.51 330.73,222.39 333.40,223.97 336.08,167.85 338.76,172.07 341.44,142.34 344.12,186.33 346.78,316.83 349.46,244.11 352.14,309.99 354.84,289.06 357.50,320.40 360.18,264.55 362.86,306.55 365.54,234.97 368.21,88.21 370.89,186.95 373.57,179.20 376.25,163.29 378.92,201.15 381.61,109.78 384.29,210.91 386.97,183.01 389.64,213.89 392.32,156.10 395.00,211.41 397.68,198.93 400.35,388.68 403.03,291.36 405.71,204.48 408.40,179.26 411.07,157.88 413.75,196.89 416.43,200.43 419.11,176.06 421.79,182.23 424.46,203.97 427.14,168.82 429.82,166.67 432.50,195.95 435.18,200.76 437.86,181.35 440.54,195.58 443.22,266.39 445.89,178.80 448.57,207.16 451.25,200.68 453.93,252.21 456.60,257.55 459.28,206.43 461.97,226.68 464.65,217.60 467.32,199.30 470.00,173.06 472.68,211.48 475.36,212.02 478.03,222.13 480.71,193.33 483.39,177.84 486.07,209.27 488.75,224.01 491.43,258.75 494.11,216.89 496.79,213.88 499.46,270.87 502.14,250.03 504.82,297.48 507.50,268.26 510.18,266.42 512.85,241.45 515.54,133.95 518.22,230.16 520.90,217.07 523.57,181.35 526.25,244.04 528.93,201.33 531.61,215.03 534.28,210.93 536.96,223.15 539.64,210.33 542.33,152.84 545.00,212.67 547.68,191.65 550.36,164.07 553.04,144.79 555.71,203.29 558.39,228.94 561.07,228.25 563.75,262.05 566.42,244.64 569.11,145.36 571.79,220.71 574.47,238.83 577.14,256.51 579.82,233.06 582.50,241.06 585.18,231.79 587.86,151.06 590.53,198.64 593.21,238.94 595.89,247.79 598.58,283.48 601.25,232.28 603.93,229.01 606.61,156.03 609.29,188.60 611.96,279.62 614.64,236.26 617.32,214.87 620.00,254.45 622.67,222.80 625.36,160.56 628.04,197.57 630.72,254.11 633.39,253.37 636.07,185.96 638.75,277.64 641.43,239.94 644.10,229.55 646.78,197.79 649.46,199.24 652.15,216.62 654.82,226.35 657.50,269.25 660.18,268.79 662.86,283.39 665.54,263.77 668.21,222.72 670.89,235.61 673.57,233.52 676.25,237.88 678.93,263.65 681.61,266.24 684.29,214.45 686.97,266.99 689.64,280.38 692.32,301.58 695.00,254.77 697.68,270.77 700.35,261.97 703.03,257.13 705.72,267.54 708.40,233.78 711.07,230.39 713.75,202.67 716.43,303.41 719.11,305.10 721.78,304.40 724.46,305.75 727.14,298.98 729.82,273.16 732.50,260.74 735.18,259.29 737.86,290.82 740.54,264.96 743.21,295.47 745.89,287.02 748.57,298.13 751.25,336.97 753.93,336.71 756.60,336.29 759.29,336.16 761.97,336.93 764.65,328.78 767.32,337.69 770.00,338.91 772.68,339.99 775.36,339.65 778.03,339.53 780.71,338.71 783.39,337.51 786.08,337.85 788.75,339.38 791.43,338.81 794.11,336.33 796.79,274.18 799.47,265.04 802.15,283.81 804.83,405.00 807.51,405.00 810.18,405.00 812.87,405.00 815.55,393.44 818.23,310.15 820.90,315.44 823.58,283.54 826.26,311.19 828.94,153.43 831.62,226.25 834.28,198.30 836.96,219.81 839.64,235.88 842.34,207.61 845.00,232.49 847.68,238.20 850.36,188.96 853.04,241.10 855.71,228.73 858.39,225.14 861.07,243.48 863.75,251.54 866.42,240.47 869.11,223.72 871.79,205.28 874.47,271.66 877.14,227.76 879.82,282.84 882.50,239.03 885.18,219.47 887.85,250.40 890.53,291.07 893.21,196.52 895.90,267.32 898.57,217.88 901.25,225.38 903.93,240.48 906.61,391.87 909.29,405.00 911.96,405.00 914.64,346.72 917.32,196.32 920.00,250.36 922.68,218.57 925.36,166.74 928.04,178.20 930.72,184.98 933.39,175.24 936.07,242.03 938.75,180.77 941.43,217.88 944.10,205.32 946.78,157.36 949.47,203.98 952.15,209.30 954.82,148.07 957.50,140.49 960.18,207.24 962.86,281.11 965.53,275.24 968.21,68.79 970.89,166.40 973.57,190.93 976.25,237.11 978.93,198.25 981.61,120.90 984.29,108.84 986.96,260.88 989.64,287.82 992.32,248.87 995.00,223.71 997.68,255.79 1000.35,138.31 1003.04,222.09 1005.72,233.64 1008.40,257.44 1011.07,244.78 1013.75,88.45 1016.43,189.92 1019.11,181.33 1021.78,197.64 1024.46,178.84 1027.14,154.49 1029.83,163.85 1032.50,185.28 1035.18,177.44 1037.86,154.36 1040.54,152.47 1043.21,188.52 1045.89,217.96 1048.57,209.01 1051.25,200.32 1053.92,210.45 1056.61,132.82 1059.29,293.39 1061.97,152.08 1064.64,209.57 1067.32,182.47 1070.00,227.70"/>
<polyline fill="none" stroke="#dc2626" stroke-width="2" points="95.00,242.04 97.68,262.11 100.36,229.33 103.03,213.89 105.71,215.88 108.39,217.75 111.08,223.60 113.75,248.61 116.43,191.25 119.11,251.16 121.79,255.14 124.46,274.79 127.14,252.26 129.82,231.32 132.50,263.09 135.17,250.23 137.86,224.34 140.54,231.72 143.22,249.94 145.89,225.48 148.57,305.12 151.25,266.72 153.93,225.76 156.60,233.74 159.28,231.75 161.96,266.77 164.65,269.79 167.32,240.71 170.00,302.79 172.68,250.24 175.36,233.75 178.04,267.63 180.72,267.23 183.40,213.07 186.08,239.00 188.76,248.24 191.44,261.52 194.12,221.87 196.80,270.04 199.48,243.62 202.15,228.38 204.83,263.99 207.51,227.35 210.19,251.63 212.86,262.87 215.54,243.94 218.23,237.82 220.91,288.85 223.58,295.91 226.26,280.47 228.94,267.62 231.62,278.04 234.29,237.45 236.97,199.95 239.65,286.90 242.33,258.39 245.01,277.36 247.69,254.98 250.37,242.94 253.05,276.28 255.72,275.59 258.40,278.77 261.08,188.48 263.76,235.54 266.44,242.92 269.11,219.37 271.80,243.72 274.48,296.99 277.16,241.38 279.83,205.08 282.51,237.80 285.19,220.24 287.87,262.49 290.54,263.98 293.22,240.44 295.90,255.64 298.59,257.08 301.26,183.47 303.94,202.24 306.62,224.02 309.30,268.46 311.97,232.91 314.65,212.98 317.33,216.49 320.01,219.34 322.68,181.16 325.37,225.77 328.05,202.81 330.73,247.66 333.40,205.68 336.08,229.42 338.76,195.53 341.44,217.49 344.12,224.33 346.78,210.19 349.46,224.28 352.14,211.05 354.84,194.75 357.50,190.21 360.18,200.15 362.86,213.19 365.54,183.72 368.21,182.73 370.89,147.43 373.57,204.88 376.25,199.68 378.92,202.29 381.61,186.85 384.29,151.88 386.97,182.97 389.64,209.32 392.32,165.90 395.00,189.49 397.68,162.72 400.35,204.84 403.03,198.99 405.71,180.08 408.40,182.41 411.07,181.64 413.75,186.22 416.43,185.37 419.11,169.98 421.79,164.72 424.46,166.23 427.14,191.74 429.82,201.19 432.50,142.72 435.18,149.74 437.86,151.72 440.54,195.11 443.22,214.03 445.89,174.99 448.57,159.10 451.25,154.08 453.93,163.00 456.60,169.58 459.28,119.81 461.97,180.19 464.65,168.50 467.32,162.38 470.00,146.57 472.68,180.70 475.36,155.00 478.03,153.24 480.71,190.66 483.39,176.70 486.07,186.30 488.75,143.36 491.43,146.69 494.11,143.76 496.79,149.49 499.46,177.15 502.14,156.12 504.82,153.07 507.50,184.62 510.18,201.46 512.85,176.54 515.54,156.50 518.22,143.08 520.90,177.42 523.57,142.91 526.25,202.91 528.93,156.01 531.61,170.20 534.28,154.46 536.96,158.85 539.64,179.61 542.33,169.43 545.00,157.98 547.68,158.87 550.36,147.08 553.04,149.02 555.71,138.51 558.39,169.63 561.07,148.06 563.75,172.70 566.42,176.38 569.11,159.51 571.79,154.52 574.47,192.02 577.14,191.62 579.82,186.11 582.50,163.62 585.18,181.80 587.86,187.03 590.53,167.97 593.21,174.33 595.89,163.77 598.58,202.76 601.25,197.00 603.93,192.51 606.61,178.70 609.29,178.94 611.96,163.86 614.64,126.40 617.32,145.04 620.00,151.80 622.67,179.92 625.36,145.09 628.04,204.58 630.72,140.58 633.39,142.69 636.07,176.26 638.75,192.74 641.43,194.22 644.10,215.61 646.78,182.10 649.46,190.68 652.15,203.43 654.82,197.27 657.50,189.40 660.18,201.07 662.86,255.10 665.54,204.32 668.21,218.46 670.89,188.46 673.57,205.19 676.25,192.17 678.93,193.78 681.61,173.95 684.29,215.50 686.97,228.27 689.64,221.02 692.32,215.11 695.00,218.77 697.68,202.74 700.35,223.02 703.03,226.43 705.72,186.97 708.40,250.06 711.07,169.54 713.75,224.41 716.43,214.59 719.11,259.58 721.78,229.94 724.46,251.59 727.14,148.00 729.82,215.56 732.50,192.95 735.18,237.15 737.86,205.14 740.54,227.87 743.21,196.90 745.89,259.74 748.57,235.85 751.25,207.18 753.93,218.52 756.60,204.98 759.29,215.03 761.97,219.31 764.65,234.68 767.32,238.70 770.00,231.46 772.68,223.54 775.36,239.31 778.03,250.16 780.71,215.45 783.39,229.75 786.08,241.08 788.75,229.48 791.43,220.11 794.11,200.52 796.79,243.09 799.47,209.57 802.15,178.20 804.83,224.16 807.51,226.37 810.18,261.51 812.87,215.81 815.55,200.72 818.23,215.88 820.90,199.52 823.58,213.02 826.26,190.54 828.94,176.21 831.62,197.04 834.28,196.05 836.96,214.80 839.64,212.34 842.34,266.78 845.00,236.28 847.68,252.66 850.36,239.24 853.04,223.37 855.71,251.22 858.39,176.23 861.07,257.81 863.75,234.97 866.42,254.34 869.11,242.95 871.79,204.89 874.47,221.94 877.14,206.00 879.82,223.16 882.50,199.77 885.18,208.28 887.85,212.95 890.53,216.52 893.21,203.24 895.90,219.59 898.57,229.03 901.25,215.78 903.93,193.20 906.61,212.51 909.29,200.38 911.96,158.80 914.64,230.26 917.32,201.33 920.00,199.12 922.68,229.44 925.36,199.49 928.04,181.55 930.72,225.52 933.39,225.98 936.07,212.23 938.75,207.00 941.43,233.92 944.10,219.13 946.78,188.01 949.47,169.32 952.15,215.13 954.82,224.97 957.50,219.81 960.18,241.06 962.86,230.42 965.53,219.96 968.21,213.82 970.89,231.42 973.57,222.71 976.25,248.33 978.93,247.46 981.61,179.41 984.29,236.53 986.96,236.47 989.64,254.50 992.32,223.83 995.00,224.21 997.68,240.01 1000.35,232.73 1003.04,228.00 1005.72,185.90 1008.40,228.76 1011.07,272.08 1013.75,240.08 1016.43,280.73 1019.11,260.97 1021.78,266.88 1024.46,191.13 1027.14,238.67 1029.83,225.96 1032.50,245.35 1035.18,252.07 1037.86,253.16 1040.54,254.67 1043.21,236.55 1045.89,229.21 1048.57,256.75 1051.25,233.39 1053.92,263.87 1056.61,192.42 1059.29,266.39 1061.97,247.36 1064.64,266.02 1067.32,211.05 1070.00,265.52"/>
<text x="95" y="442" font-family="Arial" font-size="13" fill="#555">2009-11-26</text>
<text x="955" y="442" font-family="Arial" font-size="13" fill="#555">2010-11-25</text>
<rect x="770" y="12" width="300" height="28" fill="white" stroke="#ddd"/>
<line x1="786" y1="27" x2="820" y2="27" stroke="#111827" stroke-width="2"/>
<text x="828" y="31" font-family="Arial" font-size="10" fill="#333">Ground Truth</text>
<line x1="950" y1="27" x2="984" y2="27" stroke="#dc2626" stroke-width="2"/>
<text x="992" y="31" font-family="Arial" font-size="10" fill="#333">Prediction</text>
</svg>