<svg xmlns="http://www.w3.org/2000/svg" width="1100" height="460" viewBox="0 0 1100 460">
<rect width="100%" height="100%" fill="white"/>
<text x="95" y="28" font-family="Arial" font-size="14" fill="#222">cnn_transformer horizon=90</text>
<line x1="95" y1="405" x2="1070" y2="405" stroke="#333"/>
<line x1="95" y1="58" x2="95" y2="405" stroke="#333"/>
<line x1="95" y1="405.00" x2="1070" y2="405.00" stroke="#e6e6e6"/>
<text x="83" y="409.00" text-anchor="end" font-family="Arial" font-size="12" fill="#555">0.0</text>
<line x1="95" y1="315.00" x2="1070" y2="315.00" stroke="#e6e6e6"/>
<text x="83" y="319.00" text-anchor="end" font-family="Arial" font-size="12" fill="#555">726.5</text>
<line x1="95" y1="225.00" x2="1070" y2="225.00" stroke="#e6e6e6"/>
<text x="83" y="229.00" text-anchor="end" font-family="Arial" font-size="12" fill="#555">1452.9</text>
<line x1="95" y1="135.00" x2="1070" y2="135.00" stroke="#e6e6e6"/>
<text x="83" y="139.00" text-anchor="end" font-family="Arial" font-size="12" fill="#555">2179.4</text>
<line x1="95" y1="45.00" x2="1070" y2="45.00" stroke="#e6e6e6"/>
<text x="83" y="49.00" text-anchor="end" font-family="Arial" font-size="12" fill="#555">2905.9</text>
<polyline fill="none" stroke="#111827" stroke-width="2" points="95.00,206.83 105.96,234.03 116.91,174.70 127.87,200.47 138.83,188.80 149.77,187.41 160.73,114.40 171.68,221.69 182.65,192.99 193.60,113.65 204.55,110.36 215.51,189.11 226.46,156.37 237.42,181.71 248.38,150.50 259.32,183.93 270.28,179.98 281.24,140.03 292.20,182.64 303.15,164.65 314.10,232.19 325.06,192.26 336.01,188.86 346.97,131.91 357.93,263.25 368.87,152.90 379.84,171.10 390.79,224.72 401.75,45.00 412.69,141.41 423.65,134.48 434.62,133.01 445.56,145.57 456.52,151.29 467.48,101.34 478.42,130.98 489.39,253.33 500.34,242.85 511.29,146.89 522.24,206.27 533.21,130.00 544.17,184.83 555.11,185.79 566.07,182.35 577.03,115.49 587.98,94.24 598.93,216.86 609.89,246.11 620.84,405.00 631.79,328.38 642.76,132.85 653.72,138.63 664.66,168.80 675.61,171.96 686.58,103.52 697.53,113.65 708.48,140.15 719.44,183.17 730.39,81.84 741.35,123.85 752.31,165.84 763.27,148.86 774.21,62.96 785.16,143.57 796.13,145.71 807.08,52.83 818.03,182.10 828.99,195.16 839.95,137.72 850.90,45.36 861.85,118.05 872.81,144.98 883.76,68.90 894.72,203.60 905.68,85.10 916.63,105.08 927.58,164.10 938.54,235.30 949.50,170.48 960.45,113.67 971.40,196.04 982.36,145.19 993.32,182.28 1004.27,150.47 1015.23,186.82 1026.18,162.98 1037.13,159.24 1048.09,65.51 1059.05,222.39 1070.00,223.97"/>
<polyline fill="none" stroke="#dc2626" stroke-width="2" points="95.00,228.24 105.96,210.04 116.91,259.42 127.87,241.60 138.83,211.46 149.77,266.48 160.73,213.10 171.68,253.86 182.65,258.20 193.60,278.92 204.55,248.76 215.51,253.14 226.46,271.70 237.42,287.25 248.38,259.54 259.32,246.58 270.28,263.75 281.24,282.15 292.20,275.97 303.15,265.12 314.10,297.24 325.06,287.48 336.01,292.30 346.97,304.66 357.93,266.13 368.87,261.55 379.84,300.51 390.79,291.96 401.75,302.60 412.69,310.53 423.65,336.79 434.62,323.74 445.56,259.19 456.52,282.93 467.48,309.24 478.42,325.26 489.39,329.56 500.34,298.04 511.29,290.53 522.24,283.94 533.21,333.17 544.17,306.00 555.11,308.23 566.07,286.24 577.03,318.85 587.98,321.09 598.93,298.94 609.89,313.24 620.84,303.77 631.79,289.21 642.76,285.48 653.72,333.31 664.66,266.85 675.61,281.49 686.58,303.61 697.53,306.10 708.48,305.46 719.44,304.28 730.39,273.57 741.35,261.66 752.31,298.26 763.27,302.06 774.21,280.69 785.16,267.91 796.13,278.05 807.08,274.63 818.03,305.58 828.99,293.08 839.95,277.95 850.90,303.60 861.85,298.96 872.81,309.21 883.76,267.50 894.72,273.84 905.68,255.28 916.63,268.38 927.58,272.33 938.54,283.59 949.50,293.47 960.45,261.40 971.40,293.40 982.36,265.43 993.32,290.75 1004.27,262.81 1015.23,289.76 1026.18,264.03 1037.13,296.93 1048.09,258.83 1059.05,239.43 1070.00,234.96"/>
<text x="95" y="442" font-family="Arial" font-size="13" fill="#555">2009-11-26</text>
<text x="955" y="442" font-family="Arial" font-size="13" fill="#555">2010-02-23</text>
<rect x="770" y="12" width="300" height="28" fill="white" stroke="#ddd"/>
<line x1="786" y1="27" x2="820" y2="27" stroke="#111827" stroke-width="2"/>
<text x="828" y="31" font-family="Arial" font-size="10" fill="#333">Ground Truth</text>
<line x1="950" y1="27" x2="984" y2="27" stroke="#dc2626" stroke-width="2"/>
<text x="992" y="31" font-family="Arial" font-size="10" fill="#333">Prediction</text>
</svg>