<svg xmlns="http://www.w3.org/2000/svg" width="1100" height="460" viewBox="0 0 1100 460">
<rect width="100%" height="100%" fill="white"/>
<text x="95" y="28" font-family="Arial" font-size="14" fill="#222">lstm horizon=90</text>
<line x1="95" y1="405" x2="1070" y2="405" stroke="#333"/>
<line x1="95" y1="58" x2="95" y2="405" stroke="#333"/>
<line x1="95" y1="405.00" x2="1070" y2="405.00" stroke="#e6e6e6"/>
<text x="83" y="409.00" text-anchor="end" font-family="Arial" font-size="12" fill="#555">0.0</text>
<line x1="95" y1="315.00" x2="1070" y2="315.00" stroke="#e6e6e6"/>
<text x="83" y="319.00" text-anchor="end" font-family="Arial" font-size="12" fill="#555">726.5</text>
<line x1="95" y1="225.00" x2="1070" y2="225.00" stroke="#e6e6e6"/>
<text x="83" y="229.00" text-anchor="end" font-family="Arial" font-size="12" fill="#555">1452.9</text>
<line x1="95" y1="135.00" x2="1070" y2="135.00" stroke="#e6e6e6"/>
<text x="83" y="139.00" text-anchor="end" font-family="Arial" font-size="12" fill="#555">2179.4</text>
<line x1="95" y1="45.00" x2="1070" y2="45.00" stroke="#e6e6e6"/>
<text x="83" y="49.00" text-anchor="end" font-family="Arial" font-size="12" fill="#555">2905.9</text>
<polyline fill="none" stroke="#111827" stroke-width="2" points="95.00,206.83 105.96,234.03 116.91,174.70 127.87,200.47 138.83,188.80 149.77,187.41 160.73,114.40 171.68,221.69 182.65,192.99 193.60,113.65 204.55,110.36 215.51,189.11 226.46,156.37 237.42,181.71 248.38,150.50 259.32,183.93 270.28,179.98 281.24,140.03 292.20,182.64 303.15,164.65 314.10,232.19 325.06,192.26 336.01,188.86 346.97,131.91 357.93,263.25 368.87,152.90 379.84,171.10 390.79,224.72 401.75,45.00 412.69,141.41 423.65,134.48 434.62,133.01 445.56,145.57 456.52,151.29 467.48,101.34 478.42,130.98 489.39,253.33 500.34,242.85 511.29,146.89 522.24,206.27 533.21,130.00 544.17,184.83 555.11,185.79 566.07,182.35 577.03,115.49 587.98,94.24 598.93,216.86 609.89,246.11 620.84,405.00 631.79,328.38 642.76,132.85 653.72,138.63 664.66,168.80 675.61,171.96 686.58,103.52 697.53,113.65 708.48,140.15 719.44,183.17 730.39,81.84 741.35,123.85 752.31,165.84 763.27,148.86 774.21,62.96 785.16,143.57 796.13,145.71 807.08,52.83 818.03,182.10 828.99,195.16 839.95,137.72 850.90,45.36 861.85,118.05 872.81,144.98 883.76,68.90 894.72,203.60 905.68,85.10 916.63,105.08 927.58,164.10 938.54,235.30 949.50,170.48 960.45,113.67 971.40,196.04 982.36,145.19 993.32,182.28 1004.27,150.47 1015.23,186.82 1026.18,162.98 1037.13,159.24 1048.09,65.51 1059.05,222.39 1070.00,223.97"/>
<polyline fill="none" stroke="#dc2626" stroke-width="2" points="95.00,177.23 105.96,181.78 116.91,186.93 127.87,180.06 138.83,183.02 149.77,170.72 160.73,191.37 171.68,198.60 182.65,193.61 193.60,186.86 204.55,181.16 215.51,191.27 226.46,188.38 237.42,192.16 248.38,187.35 259.32,196.44 270.28,192.74 281.24,201.04 292.20,197.46 303.15,191.61 314.10,198.25 325.06,212.74 336.01,207.93 346.97,210.02 357.93,196.36 368.87,197.91 379.84,205.04 390.79,206.21 401.75,207.70 412.69,201.65 423.65,203.72 434.62,205.83 445.56,203.88 456.52,202.24 467.48,204.39 478.42,215.63 489.39,208.51 500.34,222.75 511.29,207.14 522.24,211.29 533.21,209.23 544.17,210.26 555.11,221.07 566.07,227.86 577.03,232.24 587.98,204.15 598.93,203.76 609.89,209.71 620.84,203.91 631.79,224.44 642.76,227.60 653.72,220.18 664.66,227.74 675.61,223.35 686.58,227.73 697.53,228.89 708.48,229.66 719.44,228.22 730.39,230.38 741.35,223.59 752.31,236.39 763.27,225.06 774.21,226.15 785.16,235.49 796.13,236.15 807.08,243.37 818.03,239.54 828.99,242.79 839.95,244.93 850.90,243.88 861.85,249.05 872.81,242.83 883.76,247.09 894.72,246.39 905.68,243.56 916.63,256.15 927.58,244.98 938.54,265.08 949.50,258.42 960.45,248.41 971.40,251.74 982.36,261.39 993.32,247.48 1004.27,254.43 1015.23,263.71 1026.18,262.96 1037.13,259.04 1048.09,265.27 1059.05,260.61 1070.00,257.62"/>
<text x="95" y="442" font-family="Arial" font-size="13" fill="#555">2009-11-26</text>
<text x="955" y="442" font-family="Arial" font-size="13" fill="#555">2010-02-23</text>
<rect x="770" y="12" width="300" height="28" fill="white" stroke="#ddd"/>
<line x1="786" y1="27" x2="820" y2="27" stroke="#111827" stroke-width="2"/>
<text x="828" y="31" font-family="Arial" font-size="10" fill="#333">Ground Truth</text>
<line x1="950" y1="27" x2="984" y2="27" stroke="#dc2626" stroke-width="2"/>
<text x="992" y="31" font-family="Arial" font-size="10" fill="#333">Prediction</text>
</svg>