<svg xmlns="http://www.w3.org/2000/svg" width="1100" height="460" viewBox="0 0 1100 460">
<rect width="100%" height="100%" fill="white"/>
<text x="95" y="28" font-family="Arial" font-size="14" fill="#222">lstm horizon=365</text>
<line x1="95" y1="405" x2="1070" y2="405" stroke="#333"/>
<line x1="95" y1="58" x2="95" y2="405" stroke="#333"/>
<line x1="95" y1="405.00" x2="1070" y2="405.00" stroke="#e6e6e6"/>
<text x="83" y="409.00" text-anchor="end" font-family="Arial" font-size="12" fill="#555">0.0</text>
<line x1="95" y1="315.00" x2="1070" y2="315.00" stroke="#e6e6e6"/>
<text x="83" y="319.00" text-anchor="end" font-family="Arial" font-size="12" fill="#555">726.5</text>
<line x1="95" y1="225.00" x2="1070" y2="225.00" stroke="#e6e6e6"/>
<text x="83" y="229.00" text-anchor="end" font-family="Arial" font-size="12" fill="#555">1452.9</text>
<line x1="95" y1="135.00" x2="1070" y2="135.00" stroke="#e6e6e6"/>
<text x="83" y="139.00" text-anchor="end" font-family="Arial" font-size="12" fill="#555">2179.4</text>
<line x1="95" y1="45.00" x2="1070" y2="45.00" stroke="#e6e6e6"/>
<text x="83" y="49.00" text-anchor="end" font-family="Arial" font-size="12" fill="#555">2905.9</text>
<polyline fill="none" stroke="#111827" stroke-width="2" points="95.00,206.83 97.68,234.03 100.36,174.70 103.03,200.47 105.71,188.80 108.39,187.41 111.08,114.40 113.75,221.69 116.43,192.99 119.11,113.65 121.79,110.36 124.46,189.11 127.14,156.37 129.82,181.71 132.50,150.50 135.17,183.93 137.86,179.98 140.54,140.03 143.22,182.64 145.89,164.65 148.57,232.19 151.25,192.26 153.93,188.86 156.60,131.91 159.28,263.25 161.96,152.90 164.65,171.10 167.32,224.72 170.00,45.00 172.68,141.41 175.36,134.48 178.04,133.01 180.72,145.57 183.40,151.29 186.08,101.34 188.76,130.98 191.44,253.33 194.12,242.85 196.80,146.89 199.48,206.27 202.15,130.00 204.83,184.83 207.51,185.79 210.19,182.35 212.86,115.49 215.54,94.24 218.23,216.86 220.91,246.11 223.58,405.00 226.26,328.38 228.94,132.85 231.62,138.63 234.29,168.80 236.97,171.96 239.65,103.52 242.33,113.65 245.01,140.15 247.69,183.17 250.37,81.84 253.05,123.85 255.72,165.84 258.40,148.86 261.08,62.96 263.76,143.57 266.44,145.71 269.11,52.83 271.80,182.10 274.48,195.16 277.16,137.72 279.83,45.36 282.51,118.05 285.19,144.98 287.87,68.90 290.54,203.60 293.22,85.10 295.90,105.08 298.59,164.10 301.26,235.30 303.94,170.48 306.62,113.67 309.30,196.04 311.97,145.19 314.65,182.28 317.33,150.47 320.01,186.82 322.68,162.98 325.37,159.24 328.05,65.51 330.73,222.39 333.40,223.97 336.08,167.85 338.76,172.07 341.44,142.34 344.12,186.33 346.78,316.83 349.46,244.11 352.14,309.99 354.84,289.06 357.50,320.40 360.18,264.55 362.86,306.55 365.54,234.97 368.21,88.21 370.89,186.95 373.57,179.20 376.25,163.29 378.92,201.15 381.61,109.78 384.29,210.91 386.97,183.01 389.64,213.89 392.32,156.10 395.00,211.41 397.68,198.93 400.35,388.68 403.03,291.36 405.71,204.48 408.40,179.26 411.07,157.88 413.75,196.89 416.43,200.43 419.11,176.06 421.79,182.23 424.46,203.97 427.14,168.82 429.82,166.67 432.50,195.95 435.18,200.76 437.86,181.35 440.54,195.58 443.22,266.39 445.89,178.80 448.57,207.16 451.25,200.68 453.93,252.21 456.60,257.55 459.28,206.43 461.97,226.68 464.65,217.60 467.32,199.30 470.00,173.06 472.68,211.48 475.36,212.02 478.03,222.13 480.71,193.33 483.39,177.84 486.07,209.27 488.75,224.01 491.43,258.75 494.11,216.89 496.79,213.88 499.46,270.87 502.14,250.03 504.82,297.48 507.50,268.26 510.18,266.42 512.85,241.45 515.54,133.95 518.22,230.16 520.90,217.07 523.57,181.35 526.25,244.04 528.93,201.33 531.61,215.03 534.28,210.93 536.96,223.15 539.64,210.33 542.33,152.84 545.00,212.67 547.68,191.65 550.36,164.07 553.04,144.79 555.71,203.29 558.39,228.94 561.07,228.25 563.75,262.05 566.42,244.64 569.11,145.36 571.79,220.71 574.47,238.83 577.14,256.51 579.82,233.06 582.50,241.06 585.18,231.79 587.86,151.06 590.53,198.64 593.21,238.94 595.89,247.79 598.58,283.48 601.25,232.28 603.93,229.01 606.61,156.03 609.29,188.60 611.96,279.62 614.64,236.26 617.32,214.87 620.00,254.45 622.67,222.80 625.36,160.56 628.04,197.57 630.72,254.11 633.39,253.37 636.07,185.96 638.75,277.64 641.43,239.94 644.10,229.55 646.78,197.79 649.46,199.24 652.15,216.62 654.82,226.35 657.50,269.25 660.18,268.79 662.86,283.39 665.54,263.77 668.21,222.72 670.89,235.61 673.57,233.52 676.25,237.88 678.93,263.65 681.61,266.24 684.29,214.45 686.97,266.99 689.64,280.38 692.32,301.58 695.00,254.77 697.68,270.77 700.35,261.97 703.03,257.13 705.72,267.54 708.40,233.78 711.07,230.39 713.75,202.67 716.43,303.41 719.11,305.10 721.78,304.40 724.46,305.75 727.14,298.98 729.82,273.16 732.50,260.74 735.18,259.29 737.86,290.82 740.54,264.96 743.21,295.47 745.89,287.02 748.57,298.13 751.25,336.97 753.93,336.71 756.60,336.29 759.29,336.16 761.97,336.93 764.65,328.78 767.32,337.69 770.00,338.91 772.68,339.99 775.36,339.65 778.03,339.53 780.71,338.71 783.39,337.51 786.08,337.85 788.75,339.38 791.43,338.81 794.11,336.33 796.79,274.18 799.47,265.04 802.15,283.81 804.83,405.00 807.51,405.00 810.18,405.00 812.87,405.00 815.55,393.44 818.23,310.15 820.90,315.44 823.58,283.54 826.26,311.19 828.94,153.43 831.62,226.25 834.28,198.30 836.96,219.81 839.64,235.88 842.34,207.61 845.00,232.49 847.68,238.20 850.36,188.96 853.04,241.10 855.71,228.73 858.39,225.14 861.07,243.48 863.75,251.54 866.42,240.47 869.11,223.72 871.79,205.28 874.47,271.66 877.14,227.76 879.82,282.84 882.50,239.03 885.18,219.47 887.85,250.40 890.53,291.07 893.21,196.52 895.90,267.32 898.57,217.88 901.25,225.38 903.93,240.48 906.61,391.87 909.29,405.00 911.96,405.00 914.64,346.72 917.32,196.32 920.00,250.36 922.68,218.57 925.36,166.74 928.04,178.20 930.72,184.98 933.39,175.24 936.07,242.03 938.75,180.77 941.43,217.88 944.10,205.32 946.78,157.36 949.47,203.98 952.15,209.30 954.82,148.07 957.50,140.49 960.18,207.24 962.86,281.11 965.53,275.24 968.21,68.79 970.89,166.40 973.57,190.93 976.25,237.11 978.93,198.25 981.61,120.90 984.29,108.84 986.96,260.88 989.64,287.82 992.32,248.87 995.00,223.71 997.68,255.79 1000.35,138.31 1003.04,222.09 1005.72,233.64 1008.40,257.44 1011.07,244.78 1013.75,88.45 1016.43,189.92 1019.11,181.33 1021.78,197.64 1024.46,178.84 1027.14,154.49 1029.83,163.85 1032.50,185.28 1035.18,177.44 1037.86,154.36 1040.54,152.47 1043.21,188.52 1045.89,217.96 1048.57,209.01 1051.25,200.32 1053.92,210.45 1056.61,132.82 1059.29,293.39 1061.97,152.08 1064.64,209.57 1067.32,182.47 1070.00,227.70"/>
<polyline fill="none" stroke="#dc2626" stroke-width="2" points="95.00,172.59 97.68,165.81 100.36,161.82 103.03,168.22 105.71,172.84 108.39,173.73 111.08,175.89 113.75,164.58 116.43,179.56 119.11,176.65 121.79,174.05 124.46,171.98 127.14,181.69 129.82,174.98 132.50,186.63 135.17,172.07 137.86,170.75 140.54,177.08 143.22,152.81 145.89,169.14 148.57,182.66 151.25,171.13 153.93,190.86 156.60,162.60 159.28,165.00 161.96,171.36 164.65,167.54 167.32,166.45 170.00,171.64 172.68,159.62 175.36,153.12 178.04,150.56 180.72,158.34 183.40,152.70 186.08,167.30 188.76,155.31 191.44,137.68 194.12,147.24 196.80,138.83 199.48,150.78 202.15,147.31 204.83,147.74 207.51,130.60 210.19,138.49 212.86,131.04 215.54,140.00 218.23,138.21 220.91,129.06 223.58,130.70 226.26,144.13 228.94,145.90 231.62,139.04 234.29,141.60 236.97,145.59 239.65,132.61 242.33,127.74 245.01,132.62 247.69,130.47 250.37,137.32 253.05,125.52 255.72,134.29 258.40,145.25 261.08,134.03 263.76,141.79 266.44,140.49 269.11,129.97 271.80,134.13 274.48,134.73 277.16,138.86 279.83,141.06 282.51,139.46 285.19,141.44 287.87,142.11 290.54,157.27 293.22,159.64 295.90,146.39 298.59,133.71 301.26,128.10 303.94,139.31 306.62,157.98 309.30,145.75 311.97,151.93 314.65,165.36 317.33,141.05 320.01,153.53 322.68,138.05 325.37,148.95 328.05,138.18 330.73,163.20 333.40,157.13 336.08,161.91 338.76,145.43 341.44,154.01 344.12,162.51 346.78,167.53 349.46,144.71 352.14,154.14 354.84,158.14 357.50,172.62 360.18,178.67 362.86,150.08 365.54,156.33 368.21,152.20 370.89,161.29 373.57,155.96 376.25,172.45 378.92,164.78 381.61,176.67 384.29,182.70 386.97,175.99 389.64,163.32 392.32,160.88 395.00,174.95 397.68,158.68 400.35,156.25 403.03,156.68 405.71,166.02 408.40,170.70 411.07,176.12 413.75,172.07 416.43,155.76 419.11,167.20 421.79,173.14 424.46,174.10 427.14,183.53 429.82,173.77 432.50,187.63 435.18,196.51 437.86,189.09 440.54,168.35 443.22,188.66 445.89,191.14 448.57,179.09 451.25,183.97 453.93,190.18 456.60,187.23 459.28,182.40 461.97,188.95 464.65,199.50 467.32,186.65 470.00,196.71 472.68,190.96 475.36,212.52 478.03,193.30 480.71,194.93 483.39,197.32 486.07,210.03 488.75,197.01 491.43,194.58 494.11,200.82 496.79,216.95 499.46,201.82 502.14,199.44 504.82,200.79 507.50,203.44 510.18,216.77 512.85,203.27 515.54,201.68 518.22,223.04 520.90,209.61 523.57,211.72 526.25,202.95 528.93,206.87 531.61,225.33 534.28,226.45 536.96,208.07 539.64,223.63 542.33,216.21 545.00,216.25 547.68,203.10 550.36,215.81 553.04,214.58 555.71,236.63 558.39,225.78 561.07,230.91 563.75,211.73 566.42,230.29 569.11,215.28 571.79,226.73 574.47,220.79 577.14,236.89 579.82,220.03 582.50,209.55 585.18,237.16 587.86,221.61 590.53,219.93 593.21,230.75 595.89,231.25 598.58,240.77 601.25,232.91 603.93,242.83 606.61,238.19 609.29,225.06 611.96,235.40 614.64,229.45 617.32,227.50 620.00,211.41 622.67,232.67 625.36,227.54 628.04,236.38 630.72,225.10 633.39,240.56 636.07,251.24 638.75,249.61 641.43,246.00 644.10,227.18 646.78,247.39 649.46,238.53 652.15,255.92 654.82,250.12 657.50,234.61 660.18,247.95 662.86,260.71 665.54,248.81 668.21,256.16 670.89,244.13 673.57,248.67 676.25,252.83 678.93,244.11 681.61,240.04 684.29,249.56 686.97,238.77 689.64,258.75 692.32,260.65 695.00,263.77 697.68,253.40 700.35,262.26 703.03,256.70 705.72,267.56 708.40,262.41 711.07,249.53 713.75,265.96 716.43,263.11 719.11,266.16 721.78,273.41 724.46,271.24 727.14,271.65 729.82,257.78 732.50,279.10 735.18,264.53 737.86,254.93 740.54,253.21 743.21,262.59 745.89,279.78 748.57,258.57 751.25,249.91 753.93,261.23 756.60,262.03 759.29,263.25 761.97,250.85 764.65,259.18 767.32,269.95 770.00,265.93 772.68,272.01 775.36,275.75 778.03,263.28 780.71,278.19 783.39,294.43 786.08,280.17 788.75,280.60 791.43,262.90 794.11,283.66 796.79,274.54 799.47,292.52 802.15,273.68 804.83,269.38 807.51,283.55 810.18,287.87 812.87,286.86 815.55,279.28 818.23,280.76 820.90,285.68 823.58,277.35 826.26,277.34 828.94,293.27 831.62,282.25 834.28,287.37 836.96,297.62 839.64,296.10 842.34,282.81 845.00,267.21 847.68,291.15 850.36,291.64 853.04,304.48 855.71,278.37 858.39,283.44 861.07,292.20 863.75,301.27 866.42,276.92 869.11,266.89 871.79,274.51 874.47,281.56 877.14,296.29 879.82,273.28 882.50,270.16 885.18,289.27 887.85,283.91 890.53,285.05 893.21,274.41 895.90,294.96 898.57,266.01 901.25,274.25 903.93,292.67 906.61,267.55 909.29,266.71 911.96,279.80 914.64,271.70 917.32,264.08 920.00,272.41 922.68,282.88 925.36,271.75 928.04,261.74 930.72,257.35 933.39,262.72 936.07,247.04 938.75,253.80 941.43,261.21 944.10,261.34 946.78,256.97 949.47,260.07 952.15,247.53 954.82,256.73 957.50,238.44 960.18,256.42 962.86,230.55 965.53,239.05 968.21,240.56 970.89,239.47 973.57,248.56 976.25,240.87 978.93,244.08 981.61,227.62 984.29,238.18 986.96,243.37 989.64,235.36 992.32,216.62 995.00,228.25 997.68,221.17 1000.35,218.91 1003.04,221.33 1005.72,233.41 1008.40,227.38 1011.07,227.31 1013.75,224.66 1016.43,226.55 1019.11,221.48 1021.78,215.02 1024.46,206.73 1027.14,222.01 1029.83,236.84 1032.50,204.42 1035.18,207.17 1037.86,207.70 1040.54,209.25 1043.21,191.30 1045.89,196.21 1048.57,210.28 1051.25,212.99 1053.92,187.09 1056.61,195.93 1059.29,190.13 1061.97,186.45 1064.64,208.10 1067.32,202.90 1070.00,192.51"/>
<text x="95" y="442" font-family="Arial" font-size="13" fill="#555">2009-11-26</text>
<text x="955" y="442" font-family="Arial" font-size="13" fill="#555">2010-11-25</text>
<rect x="770" y="12" width="300" height="28" fill="white" stroke="#ddd"/>
<line x1="786" y1="27" x2="820" y2="27" stroke="#111827" stroke-width="2"/>
<text x="828" y="31" font-family="Arial" font-size="10" fill="#333">Ground Truth</text>
<line x1="950" y1="27" x2="984" y2="27" stroke="#dc2626" stroke-width="2"/>
<text x="992" y="31" font-family="Arial" font-size="10" fill="#333">Prediction</text>
</svg>