<svg xmlns="http://www.w3.org/2000/svg" width="1100" height="460" viewBox="0 0 1100 460">
<rect width="100%" height="100%" fill="white"/>
<text x="95" y="28" font-family="Arial" font-size="14" fill="#222">transformer horizon=365</text>
<line x1="95" y1="405" x2="1070" y2="405" stroke="#333"/>
<line x1="95" y1="58" x2="95" y2="405" stroke="#333"/>
<line x1="95" y1="405.00" x2="1070" y2="405.00" stroke="#e6e6e6"/>
<text x="83" y="409.00" text-anchor="end" font-family="Arial" font-size="12" fill="#555">0.0</text>
<line x1="95" y1="315.00" x2="1070" y2="315.00" stroke="#e6e6e6"/>
<text x="83" y="319.00" text-anchor="end" font-family="Arial" font-size="12" fill="#555">726.5</text>
<line x1="95" y1="225.00" x2="1070" y2="225.00" stroke="#e6e6e6"/>
<text x="83" y="229.00" text-anchor="end" font-family="Arial" font-size="12" fill="#555">1452.9</text>
<line x1="95" y1="135.00" x2="1070" y2="135.00" stroke="#e6e6e6"/>
<text x="83" y="139.00" text-anchor="end" font-family="Arial" font-size="12" fill="#555">2179.4</text>
<line x1="95" y1="45.00" x2="1070" y2="45.00" stroke="#e6e6e6"/>
<text x="83" y="49.00" text-anchor="end" font-family="Arial" font-size="12" fill="#555">2905.9</text>
<polyline fill="none" stroke="#111827" stroke-width="2" points="95.00,206.83 97.68,234.03 100.36,174.70 103.03,200.47 105.71,188.80 108.39,187.41 111.08,114.40 113.75,221.69 116.43,192.99 119.11,113.65 121.79,110.36 124.46,189.11 127.14,156.37 129.82,181.71 132.50,150.50 135.17,183.93 137.86,179.98 140.54,140.03 143.22,182.64 145.89,164.65 148.57,232.19 151.25,192.26 153.93,188.86 156.60,131.91 159.28,263.25 161.96,152.90 164.65,171.10 167.32,224.72 170.00,45.00 172.68,141.41 175.36,134.48 178.04,133.01 180.72,145.57 183.40,151.29 186.08,101.34 188.76,130.98 191.44,253.33 194.12,242.85 196.80,146.89 199.48,206.27 202.15,130.00 204.83,184.83 207.51,185.79 210.19,182.35 212.86,115.49 215.54,94.24 218.23,216.86 220.91,246.11 223.58,405.00 226.26,328.38 228.94,132.85 231.62,138.63 234.29,168.80 236.97,171.96 239.65,103.52 242.33,113.65 245.01,140.15 247.69,183.17 250.37,81.84 253.05,123.85 255.72,165.84 258.40,148.86 261.08,62.96 263.76,143.57 266.44,145.71 269.11,52.83 271.80,182.10 274.48,195.16 277.16,137.72 279.83,45.36 282.51,118.05 285.19,144.98 287.87,68.90 290.54,203.60 293.22,85.10 295.90,105.08 298.59,164.10 301.26,235.30 303.94,170.48 306.62,113.67 309.30,196.04 311.97,145.19 314.65,182.28 317.33,150.47 320.01,186.82 322.68,162.98 325.37,159.24 328.05,65.51 330.73,222.39 333.40,223.97 336.08,167.85 338.76,172.07 341.44,142.34 344.12,186.33 346.78,316.83 349.46,244.11 352.14,309.99 354.84,289.06 357.50,320.40 360.18,264.55 362.86,306.55 365.54,234.97 368.21,88.21 370.89,186.95 373.57,179.20 376.25,163.29 378.92,201.15 381.61,109.78 384.29,210.91 386.97,183.01 389.64,213.89 392.32,156.10 395.00,211.41 397.68,198.93 400.35,388.68 403.03,291.36 405.71,204.48 408.40,179.26 411.07,157.88 413.75,196.89 416.43,200.43 419.11,176.06 421.79,182.23 424.46,203.97 427.14,168.82 429.82,166.67 432.50,195.95 435.18,200.76 437.86,181.35 440.54,195.58 443.22,266.39 445.89,178.80 448.57,207.16 451.25,200.68 453.93,252.21 456.60,257.55 459.28,206.43 461.97,226.68 464.65,217.60 467.32,199.30 470.00,173.06 472.68,211.48 475.36,212.02 478.03,222.13 480.71,193.33 483.39,177.84 486.07,209.27 488.75,224.01 491.43,258.75 494.11,216.89 496.79,213.88 499.46,270.87 502.14,250.03 504.82,297.48 507.50,268.26 510.18,266.42 512.85,241.45 515.54,133.95 518.22,230.16 520.90,217.07 523.57,181.35 526.25,244.04 528.93,201.33 531.61,215.03 534.28,210.93 536.96,223.15 539.64,210.33 542.33,152.84 545.00,212.67 547.68,191.65 550.36,164.07 553.04,144.79 555.71,203.29 558.39,228.94 561.07,228.25 563.75,262.05 566.42,244.64 569.11,145.36 571.79,220.71 574.47,238.83 577.14,256.51 579.82,233.06 582.50,241.06 585.18,231.79 587.86,151.06 590.53,198.64 593.21,238.94 595.89,247.79 598.58,283.48 601.25,232.28 603.93,229.01 606.61,156.03 609.29,188.60 611.96,279.62 614.64,236.26 617.32,214.87 620.00,254.45 622.67,222.80 625.36,160.56 628.04,197.57 630.72,254.11 633.39,253.37 636.07,185.96 638.75,277.64 641.43,239.94 644.10,229.55 646.78,197.79 649.46,199.24 652.15,216.62 654.82,226.35 657.50,269.25 660.18,268.79 662.86,283.39 665.54,263.77 668.21,222.72 670.89,235.61 673.57,233.52 676.25,237.88 678.93,263.65 681.61,266.24 684.29,214.45 686.97,266.99 689.64,280.38 692.32,301.58 695.00,254.77 697.68,270.77 700.35,261.97 703.03,257.13 705.72,267.54 708.40,233.78 711.07,230.39 713.75,202.67 716.43,303.41 719.11,305.10 721.78,304.40 724.46,305.75 727.14,298.98 729.82,273.16 732.50,260.74 735.18,259.29 737.86,290.82 740.54,264.96 743.21,295.47 745.89,287.02 748.57,298.13 751.25,336.97 753.93,336.71 756.60,336.29 759.29,336.16 761.97,336.93 764.65,328.78 767.32,337.69 770.00,338.91 772.68,339.99 775.36,339.65 778.03,339.53 780.71,338.71 783.39,337.51 786.08,337.85 788.75,339.38 791.43,338.81 794.11,336.33 796.79,274.18 799.47,265.04 802.15,283.81 804.83,405.00 807.51,405.00 810.18,405.00 812.87,405.00 815.55,393.44 818.23,310.15 820.90,315.44 823.58,283.54 826.26,311.19 828.94,153.43 831.62,226.25 834.28,198.30 836.96,219.81 839.64,235.88 842.34,207.61 845.00,232.49 847.68,238.20 850.36,188.96 853.04,241.10 855.71,228.73 858.39,225.14 861.07,243.48 863.75,251.54 866.42,240.47 869.11,223.72 871.79,205.28 874.47,271.66 877.14,227.76 879.82,282.84 882.50,239.03 885.18,219.47 887.85,250.40 890.53,291.07 893.21,196.52 895.90,267.32 898.57,217.88 901.25,225.38 903.93,240.48 906.61,391.87 909.29,405.00 911.96,405.00 914.64,346.72 917.32,196.32 920.00,250.36 922.68,218.57 925.36,166.74 928.04,178.20 930.72,184.98 933.39,175.24 936.07,242.03 938.75,180.77 941.43,217.88 944.10,205.32 946.78,157.36 949.47,203.98 952.15,209.30 954.82,148.07 957.50,140.49 960.18,207.24 962.86,281.11 965.53,275.24 968.21,68.79 970.89,166.40 973.57,190.93 976.25,237.11 978.93,198.25 981.61,120.90 984.29,108.84 986.96,260.88 989.64,287.82 992.32,248.87 995.00,223.71 997.68,255.79 1000.35,138.31 1003.04,222.09 1005.72,233.64 1008.40,257.44 1011.07,244.78 1013.75,88.45 1016.43,189.92 1019.11,181.33 1021.78,197.64 1024.46,178.84 1027.14,154.49 1029.83,163.85 1032.50,185.28 1035.18,177.44 1037.86,154.36 1040.54,152.47 1043.21,188.52 1045.89,217.96 1048.57,209.01 1051.25,200.32 1053.92,210.45 1056.61,132.82 1059.29,293.39 1061.97,152.08 1064.64,209.57 1067.32,182.47 1070.00,227.70"/>
<polyline fill="none" stroke="#dc2626" stroke-width="2" points="95.00,192.97 97.68,184.01 100.36,153.95 103.03,169.56 105.71,145.02 108.39,176.25 111.08,150.22 113.75,169.97 116.43,167.71 119.11,152.23 121.79,154.51 124.46,154.93 127.14,182.77 129.82,142.41 132.50,165.11 135.17,184.44 137.86,165.28 140.54,173.21 143.22,171.00 145.89,164.49 148.57,165.51 151.25,179.96 153.93,156.90 156.60,159.54 159.28,159.79 161.96,158.68 164.65,171.92 167.32,143.64 170.00,178.67 172.68,186.04 175.36,146.22 178.04,173.02 180.72,162.42 183.40,186.72 186.08,157.58 188.76,166.44 191.44,174.60 194.12,146.08 196.80,196.49 199.48,165.12 202.15,177.58 204.83,160.15 207.51,155.83 210.19,166.07 212.86,147.61 215.54,171.13 218.23,152.31 220.91,170.48 223.58,145.05 226.26,183.34 228.94,162.91 231.62,162.94 234.29,158.31 236.97,166.72 239.65,150.71 242.33,191.59 245.01,151.87 247.69,164.95 250.37,151.44 253.05,164.41 255.72,163.66 258.40,175.27 261.08,150.01 263.76,191.77 266.44,143.79 269.11,152.12 271.80,179.11 274.48,136.34 277.16,185.88 279.83,151.48 282.51,170.94 285.19,166.82 287.87,174.04 290.54,169.45 293.22,176.84 295.90,170.52 298.59,167.37 301.26,182.12 303.94,163.03 306.62,172.54 309.30,174.66 311.97,161.36 314.65,183.62 317.33,160.01 320.01,185.06 322.68,188.44 325.37,148.01 328.05,180.14 330.73,163.80 333.40,169.20 336.08,198.44 338.76,204.24 341.44,165.85 344.12,165.78 346.78,185.35 349.46,186.21 352.14,196.81 354.84,160.24 357.50,182.13 360.18,187.97 362.86,196.89 365.54,197.39 368.21,169.90 370.89,173.09 373.57,195.22 376.25,173.61 378.92,168.45 381.61,189.85 384.29,207.73 386.97,126.69 389.64,170.79 392.32,185.88 395.00,179.93 397.68,185.07 400.35,167.29 403.03,162.28 405.71,166.15 408.40,177.51 411.07,204.37 413.75,160.13 416.43,163.99 419.11,181.11 421.79,198.55 424.46,183.63 427.14,192.97 429.82,186.53 432.50,154.10 435.18,154.65 437.86,208.71 440.54,175.04 443.22,224.56 445.89,221.65 448.57,202.15 451.25,161.45 453.93,177.82 456.60,184.00 459.28,213.24 461.97,180.40 464.65,201.32 467.32,152.53 470.00,187.72 472.68,197.71 475.36,207.35 478.03,178.26 480.71,183.89 483.39,194.09 486.07,201.21 488.75,204.11 491.43,204.97 494.11,180.49 496.79,195.15 499.46,206.86 502.14,177.00 504.82,164.48 507.50,211.04 510.18,210.44 512.85,220.53 515.54,209.25 518.22,191.68 520.90,212.07 523.57,189.43 526.25,227.78 528.93,223.19 531.61,206.99 534.28,201.76 536.96,236.50 539.64,216.61 542.33,199.61 545.00,199.18 547.68,229.86 550.36,212.51 553.04,217.25 555.71,221.79 558.39,227.62 561.07,218.96 563.75,194.75 566.42,216.84 569.11,224.47 571.79,237.42 574.47,211.87 577.14,215.98 579.82,196.29 582.50,209.16 585.18,213.97 587.86,229.29 590.53,239.59 593.21,213.85 595.89,223.43 598.58,237.59 601.25,209.92 603.93,245.17 606.61,243.78 609.29,227.53 611.96,269.48 614.64,225.80 617.32,241.64 620.00,254.77 622.67,260.58 625.36,231.54 628.04,241.56 630.72,255.56 633.39,253.35 636.07,266.58 638.75,274.19 641.43,248.63 644.10,249.09 646.78,265.20 649.46,263.54 652.15,268.39 654.82,260.60 657.50,242.49 660.18,261.73 662.86,269.75 665.54,262.48 668.21,258.11 670.89,245.79 673.57,250.90 676.25,230.67 678.93,263.12 681.61,270.28 684.29,277.10 686.97,274.16 689.64,271.26 692.32,254.66 695.00,281.20 697.68,264.03 700.35,263.87 703.03,274.30 705.72,296.53 708.40,266.89 711.07,259.66 713.75,279.02 716.43,282.05 719.11,297.00 721.78,275.94 724.46,269.25 727.14,317.14 729.82,245.57 732.50,265.37 735.18,303.30 737.86,283.75 740.54,289.59 743.21,279.23 745.89,307.21 748.57,270.41 751.25,283.50 753.93,260.97 756.60,274.27 759.29,279.40 761.97,283.95 764.65,287.46 767.32,279.80 770.00,288.01 772.68,296.73 775.36,290.16 778.03,301.52 780.71,280.42 783.39,268.42 786.08,267.68 788.75,273.38 791.43,283.17 794.11,275.76 796.79,287.03 799.47,290.87 802.15,277.87 804.83,295.40 807.51,316.87 810.18,294.61 812.87,283.36 815.55,258.46 818.23,288.33 820.90,297.33 823.58,288.76 826.26,276.86 828.94,290.33 831.62,283.27 834.28,287.19 836.96,280.17 839.64,276.70 842.34,276.35 845.00,282.33 847.68,259.79 850.36,273.92 853.04,282.42 855.71,268.92 858.39,243.76 861.07,284.66 863.75,256.45 866.42,261.03 869.11,278.07 871.79,283.52 874.47,265.25 877.14,257.21 879.82,246.98 882.50,251.16 885.18,265.86 887.85,262.91 890.53,281.45 893.21,259.01 895.90,259.45 898.57,264.38 901.25,245.69 903.93,261.42 906.61,257.65 909.29,267.63 911.96,245.19 914.64,272.28 917.32,236.72 920.00,238.18 922.68,238.46 925.36,232.10 928.04,251.58 930.72,215.46 933.39,241.17 936.07,207.17 938.75,224.44 941.43,233.84 944.10,221.84 946.78,260.51 949.47,204.98 952.15,238.04 954.82,223.59 957.50,207.32 960.18,226.33 962.86,245.99 965.53,220.39 968.21,248.39 970.89,227.04 973.57,253.84 976.25,219.14 978.93,230.85 981.61,198.94 984.29,236.34 986.96,220.88 989.64,222.63 992.32,231.73 995.00,202.54 997.68,209.74 1000.35,196.02 1003.04,242.68 1005.72,214.03 1008.40,206.29 1011.07,222.49 1013.75,193.17 1016.43,219.92 1019.11,191.02 1021.78,197.23 1024.46,198.76 1027.14,215.32 1029.83,219.69 1032.50,218.32 1035.18,219.31 1037.86,217.76 1040.54,210.68 1043.21,210.95 1045.89,202.24 1048.57,226.68 1051.25,178.43 1053.92,192.54 1056.61,202.45 1059.29,209.94 1061.97,208.55 1064.64,188.78 1067.32,177.72 1070.00,155.98"/>
<text x="95" y="442" font-family="Arial" font-size="13" fill="#555">2009-11-26</text>
<text x="955" y="442" font-family="Arial" font-size="13" fill="#555">2010-11-25</text>
<rect x="770" y="12" width="300" height="28" fill="white" stroke="#ddd"/>
<line x1="786" y1="27" x2="820" y2="27" stroke="#111827" stroke-width="2"/>
<text x="828" y="31" font-family="Arial" font-size="10" fill="#333">Ground Truth</text>
<line x1="950" y1="27" x2="984" y2="27" stroke="#dc2626" stroke-width="2"/>
<text x="992" y="31" font-family="Arial" font-size="10" fill="#333">Prediction</text>
</svg>