<svg xmlns="http://www.w3.org/2000/svg" width="1100" height="460" viewBox="0 0 1100 460">
<rect width="100%" height="100%" fill="white"/>
<text x="95" y="28" font-family="Arial" font-size="14" fill="#222">transformer horizon=90</text>
<line x1="95" y1="405" x2="1070" y2="405" stroke="#333"/>
<line x1="95" y1="58" x2="95" y2="405" stroke="#333"/>
<line x1="95" y1="405.00" x2="1070" y2="405.00" stroke="#e6e6e6"/>
<text x="83" y="409.00" text-anchor="end" font-family="Arial" font-size="12" fill="#555">0.0</text>
<line x1="95" y1="315.00" x2="1070" y2="315.00" stroke="#e6e6e6"/>
<text x="83" y="319.00" text-anchor="end" font-family="Arial" font-size="12" fill="#555">726.5</text>
<line x1="95" y1="225.00" x2="1070" y2="225.00" stroke="#e6e6e6"/>
<text x="83" y="229.00" text-anchor="end" font-family="Arial" font-size="12" fill="#555">1452.9</text>
<line x1="95" y1="135.00" x2="1070" y2="135.00" stroke="#e6e6e6"/>
<text x="83" y="139.00" text-anchor="end" font-family="Arial" font-size="12" fill="#555">2179.4</text>
<line x1="95" y1="45.00" x2="1070" y2="45.00" stroke="#e6e6e6"/>
<text x="83" y="49.00" text-anchor="end" font-family="Arial" font-size="12" fill="#555">2905.9</text>
<polyline fill="none" stroke="#111827" stroke-width="2" points="95.00,206.83 105.96,234.03 116.91,174.70 127.87,200.47 138.83,188.80 149.77,187.41 160.73,114.40 171.68,221.69 182.65,192.99 193.60,113.65 204.55,110.36 215.51,189.11 226.46,156.37 237.42,181.71 248.38,150.50 259.32,183.93 270.28,179.98 281.24,140.03 292.20,182.64 303.15,164.65 314.10,232.19 325.06,192.26 336.01,188.86 346.97,131.91 357.93,263.25 368.87,152.90 379.84,171.10 390.79,224.72 401.75,45.00 412.69,141.41 423.65,134.48 434.62,133.01 445.56,145.57 456.52,151.29 467.48,101.34 478.42,130.98 489.39,253.33 500.34,242.85 511.29,146.89 522.24,206.27 533.21,130.00 544.17,184.83 555.11,185.79 566.07,182.35 577.03,115.49 587.98,94.24 598.93,216.86 609.89,246.11 620.84,405.00 631.79,328.38 642.76,132.85 653.72,138.63 664.66,168.80 675.61,171.96 686.58,103.52 697.53,113.65 708.48,140.15 719.44,183.17 730.39,81.84 741.35,123.85 752.31,165.84 763.27,148.86 774.21,62.96 785.16,143.57 796.13,145.71 807.08,52.83 818.03,182.10 828.99,195.16 839.95,137.72 850.90,45.36 861.85,118.05 872.81,144.98 883.76,68.90 894.72,203.60 905.68,85.10 916.63,105.08 927.58,164.10 938.54,235.30 949.50,170.48 960.45,113.67 971.40,196.04 982.36,145.19 993.32,182.28 1004.27,150.47 1015.23,186.82 1026.18,162.98 1037.13,159.24 1048.09,65.51 1059.05,222.39 1070.00,223.97"/>
<polyline fill="none" stroke="#dc2626" stroke-width="2" points="95.00,154.77 105.96,204.08 116.91,182.88 127.87,151.50 138.83,184.93 149.77,183.14 160.73,197.77 171.68,189.07 182.65,203.71 193.60,179.74 204.55,179.98 215.51,199.46 226.46,170.05 237.42,182.36 248.38,186.44 259.32,189.97 270.28,174.84 281.24,219.19 292.20,206.45 303.15,190.24 314.10,201.69 325.06,214.06 336.01,237.34 346.97,217.82 357.93,214.24 368.87,202.89 379.84,215.90 390.79,206.55 401.75,232.25 412.69,224.71 423.65,219.27 434.62,238.15 445.56,195.40 456.52,198.05 467.48,187.08 478.42,203.89 489.39,216.00 500.34,222.10 511.29,244.66 522.24,213.31 533.21,197.51 544.17,202.62 555.11,222.40 566.07,225.81 577.03,216.17 587.98,209.12 598.93,227.96 609.89,200.67 620.84,200.77 631.79,214.21 642.76,223.07 653.72,199.18 664.66,221.62 675.61,217.34 686.58,220.40 697.53,218.95 708.48,207.14 719.44,207.83 730.39,230.71 741.35,192.48 752.31,222.65 763.27,232.95 774.21,233.50 785.16,241.54 796.13,224.07 807.08,229.21 818.03,250.79 828.99,217.26 839.95,209.60 850.90,242.45 861.85,229.13 872.81,242.32 883.76,237.91 894.72,214.32 905.68,230.90 916.63,243.98 927.58,227.04 938.54,235.58 949.50,247.31 960.45,236.90 971.40,270.26 982.36,197.12 993.32,253.84 1004.27,245.95 1015.23,212.32 1026.18,224.16 1037.13,241.79 1048.09,242.03 1059.05,240.18 1070.00,232.81"/>
<text x="95" y="442" font-family="Arial" font-size="13" fill="#555">2009-11-26</text>
<text x="955" y="442" font-family="Arial" font-size="13" fill="#555">2010-02-23</text>
<rect x="770" y="12" width="300" height="28" fill="white" stroke="#ddd"/>
<line x1="786" y1="27" x2="820" y2="27" stroke="#111827" stroke-width="2"/>
<text x="828" y="31" font-family="Arial" font-size="10" fill="#333">Ground Truth</text>
<line x1="950" y1="27" x2="984" y2="27" stroke="#dc2626" stroke-width="2"/>
<text x="992" y="31" font-family="Arial" font-size="10" fill="#333">Prediction</text>
</svg>